<?xml version="1.0" encoding="utf-8"?>
<!-- Generator: Adobe Illustrator 25.0.0, SVG Export Plug-In . SVG Version: 6.00 Build 0)  -->
<svg version="1.1" id="PRINT" xmlns="http://www.w3.org/2000/svg" xmlns:xlink="http://www.w3.org/1999/xlink" x="0px" y="0px"
	 viewBox="0 0 595.3 841.9" style="enable-background:new 0 0 595.3 841.9;" xml:space="preserve">
<style type="text/css">
	.st0{fill:none;}
	.st1{clip-path:url(#SVGID_2_);}
	.st2{fill:#DCDDDD;}
	.st3{fill:#ADB0B0;}
	.st4{fill:#F3E7D7;}
	.st5{clip-path:url(#SVGID_4_);fill-rule:evenodd;clip-rule:evenodd;fill:#F7B3CC;}
	.st6{clip-path:url(#SVGID_4_);fill-rule:evenodd;clip-rule:evenodd;fill:#EF5940;}
	.st7{fill:none;stroke:#000000;stroke-width:0.5;stroke-miterlimit:10;}
	.st8{fill:#F7B3CC;}
	.st9{clip-path:url(#SVGID_6_);fill:url(#SVGID_7_);}
	.st10{font-family:'BitterRoman-Light';}
	.st11{font-size:10px;}
	.st12{font-family:'BitterRoman-Medium';}
	.st13{font-family:'Belleza-Regular';}
	.st14{font-size:16.6666px;}
	.st15{font-size:20px;}
	.st16{font-size:32.3903px;}
</style>
<pattern  width="25" height="25" patternUnits="userSpaceOnUse" id="Unnamed_Pattern_3" viewBox="0 -37.5 25 25" style="overflow:visible;">
	<g>
		<rect y="-37.5" class="st0" width="25" height="25"/>
		<g>
			<defs>
				<rect id="SVGID_1_" x="0" y="-37.5" width="25" height="25"/>
			</defs>
			<clipPath id="SVGID_2_">
				<use xlink:href="#SVGID_1_"  style="overflow:visible;"/>
			</clipPath>
			<g class="st1">
				<rect x="0" y="-25" class="st2" width="12.5" height="12.5"/>
				<rect x="12.5" y="-37.5" class="st2" width="12.5" height="12.5"/>
				<rect x="12.5" y="-25" class="st3" width="12.5" height="12.5"/>
				<rect x="0" y="-37.5" class="st3" width="12.5" height="12.5"/>
			</g>
			<g class="st1">
				<rect x="12.5" y="-12.5" class="st2" width="12.5" height="12.5"/>
				<rect x="0" y="-12.5" class="st3" width="12.5" height="12.5"/>
			</g>
		</g>
	</g>
</pattern>
<g id="BACKGROUND">
	
		<rect x="-8.5" y="-8.5" transform="matrix(-1 -1.224647e-16 1.224647e-16 -1 595.2756 841.8898)" class="st4" width="612.3" height="858.9"/>
</g>
<g id="OBJECTS">
	<g>
		<defs>
			<rect id="SVGID_3_" x="-8.5" y="-8.5" width="612.3" height="858.9"/>
		</defs>
		<clipPath id="SVGID_4_">
			<use xlink:href="#SVGID_3_"  style="overflow:visible;"/>
		</clipPath>
		<path class="st5" d="M321.5-97.3c6.8,63.4,3.7,126.6-9.8,189.1c-11.2,51.7-29.6,102.3-52.9,149.7
			c-60.6,123.3-142.1,84.1-205.1-22.3c-21-35.4-35.2-74-50.7-112c-23.2-57-51-117.9-52.8-180.6C-51.7-136.2,321.5-97.3,321.5-97.3z"
			/>
		<polygon class="st6" points="484.4,726.5 474,642.3 528.7,727 581.5,622.8 583.6,707.8 681.7,685.4 643.5,748.4 756,776.8 
			633.4,820.3 646.2,905.9 586.7,832.2 563.9,920.9 549.7,842.6 508.3,873.7 519.4,814.4 430.9,835.8 484.5,792.5 362.2,750.1 		"/>
	</g>
	<g>
		<g>
			<rect x="28.3" y="325.8" width="203.1" height="3"/>
		</g>
		<line class="st7" x1="28.8" y1="414.3" x2="231.4" y2="414.3"/>
		<line class="st7" x1="28.8" y1="465" x2="231.4" y2="465"/>
		<line class="st7" x1="28.8" y1="566.2" x2="231.4" y2="566.2"/>
		<line class="st7" x1="28.8" y1="515.6" x2="231.4" y2="515.6"/>
	</g>
	<g>
		<rect x="28.3" y="622.8" width="202.6" height="3"/>
	</g>
	<g>
		<rect x="28.3" y="760" width="202.6" height="3"/>
	</g>
	<g>
		<rect x="28.3" y="106.3" width="420.7" height="3"/>
	</g>
	<line class="st7" x1="449" y1="269.2" x2="28.3" y2="269.2"/>
	<g>
		<g>
			<rect x="245.9" y="325.8" width="203.1" height="3"/>
		</g>
		<line class="st7" x1="246.4" y1="414.3" x2="449" y2="414.3"/>
		<line class="st7" x1="246.4" y1="465" x2="449" y2="465"/>
		<line class="st7" x1="246.4" y1="515.6" x2="449" y2="515.6"/>
		<line class="st7" x1="246.4" y1="566.2" x2="449" y2="566.2"/>
	</g>
	<g>
		<rect x="245.9" y="622.8" width="203.1" height="3"/>
	</g>
	<g>
		<path class="st8" d="M516.6,617.4c-1.1,0-2.2-0.4-3.1-1.1c-2.1-1.7-2.3-4.8-0.6-6.9c5.7-6.8,1.8-17.5,0.5-20.6
			c-1.3-3.2-3-6.2-4.8-9.4c-2.7-4.9-5.4-9.9-7.1-15.6c-5.3-17.8,1.7-35,8.5-51.6c5.8-14.4,11.4-28,9.4-41.7
			c-1.3-8.6-5.5-16.7-10-25.2c-5.1-9.7-10.4-19.7-11.3-31.1c-1.3-16.8,7.1-31.7,15.2-46.1c0.9-1.6,1.8-3.1,2.6-4.7
			c10.7-19.3,13.2-33.5,7.9-44.6c-1.2-2.4-0.1-5.3,2.3-6.5c2.4-1.2,5.3-0.1,6.5,2.3c8.9,18.7-0.4,39.5-8.2,53.5
			c-0.9,1.6-1.8,3.2-2.7,4.7c-7.4,13.1-15,26.7-14,40.6c0.7,9.4,5.3,18.1,10.2,27.3c4.7,8.9,9.5,18.1,11,28.3
			c2.4,16.3-3.9,31.8-10,46.8c-6.4,15.8-12.4,30.6-8.1,45.2c1.4,4.6,3.8,9,6.3,13.6c1.8,3.3,3.7,6.7,5.2,10.3
			c5,11.8,4.3,23.3-2,30.7C519.4,616.8,518,617.4,516.6,617.4z"/>
	</g>
</g>
<g id="PHOTO">
	<g>
		<defs>
			<path id="SVGID_5_" d="M522.9,269.2h-59.3V106.3h103.4v118.8C566.9,249.5,547.2,269.2,522.9,269.2z"/>
		</defs>
		<clipPath id="SVGID_6_">
			<use xlink:href="#SVGID_5_"  style="overflow:visible;"/>
		</clipPath>
		<pattern  id="SVGID_7_" xlink:href="#Unnamed_Pattern_3" patternTransform="matrix(0.4807 0 0 0.4807 -4093.0342 -3607.9133)">
		</pattern>
		<rect x="216.3" y="3.5" class="st9" width="540" height="649.5"/>
	</g>
</g>
<g id="TEXTS">
	<text transform="matrix(1 0 0 1 373.2622 78.5076)" class="st10 st11">+01 740-981-4883</text>
	<g>
		<g>
			<text transform="matrix(1 0 0 1 28.3452 780.0581)" class="st10 st11">i:</text>
			<text transform="matrix(1 0 0 1 44.3452 780.0581)" class="st10 st11">@o.jones</text>
		</g>
		<g>
			<text transform="matrix(1 0 0 1 170.3555 780.0579)" class="st10 st11">l:</text>
			<text transform="matrix(1 0 0 1 186.3555 780.0579)" class="st10 st11">ora-jones</text>
		</g>
	</g>
	<g>
		<g>
			<g>
				<text transform="matrix(1 0 0 1 28.8034 380.3381)" class="st10 st11">ja 2017 - currently</text>
				<text transform="matrix(1 0 0 1 178.3325 380.3379)" class="st12 st11">zulauf group</text>
				<text transform="matrix(1 0 0 1 159.9331 393.0046)" class="st10 st11">fs web developer</text>
			</g>
		</g>
		<g>
			<g>
				<text transform="matrix(1 0 0 1 28.8034 430.9434)" class="st10 st11">ap 2012 - ju 2016</text>
				<text transform="matrix(1 0 0 1 181.0425 430.9431)" class="st12 st11">mann-larkin</text>
				<text transform="matrix(1 0 0 1 147.1133 443.6099)" class="st10 st11">senior web designer</text>
			</g>
		</g>
		<g>
			<g>
				<text transform="matrix(1 0 0 1 28.8034 532.1537)" class="st10 st11">ja 2009 - ju 2011</text>
				<text transform="matrix(1 0 0 1 184.2129 532.1536)" class="st12 st11">bode-ebert</text>
				<text transform="matrix(1 0 0 1 148.1431 544.8202)" class="st10 st11">junior web designer</text>
			</g>
		</g>
		<g>
			<g>
				<text transform="matrix(1 0 0 1 28.8034 481.5485)" class="st10 st11">se 2011 - fe 2012</text>
				<text transform="matrix(1 0 0 1 175.6323 481.5483)" class="st12 st11">emmerich ltd</text>
				<text transform="matrix(1 0 0 1 174.8525 494.215)" class="st10 st11">web designer</text>
			</g>
		</g>
		<text transform="matrix(1 0 0 1 28.8034 349.5774)" class="st13 st14">work</text>
	</g>
	<g>
		<rect x="28.3" y="667.6" class="st0" width="202.6" height="35.7"/>
		<text transform="matrix(1 0 0 1 28.3469 674.7363)"><tspan x="0" y="0" class="st10 st11">don&apos;t worry about coding — we&apos;ve got you </tspan><tspan x="0" y="14" class="st10 st11">covered! our intuitive drag-and-drop editor makes </tspan><tspan x="0" y="28" class="st10 st11">it easy to add media to your website.</tspan></text>
		<text transform="matrix(1 0 0 1 28.3464 646.5315)" class="st13 st14">skills</text>
	</g>
	<g>
		<rect x="28.3" y="161.5" class="st0" width="202.6" height="77.7"/>
		<text transform="matrix(1 0 0 1 28.3469 168.6012)"><tspan x="0" y="0" class="st10 st11">Web designers plan, create and code internet </tspan><tspan x="0" y="14" class="st10 st11">sites and web pages, many of which combine </tspan><tspan x="0" y="28" class="st10 st11">text with sounds, pictures, graphics and video </tspan><tspan x="0" y="42" class="st10 st11">clips. A web designer is responsible for creating </tspan><tspan x="0" y="56" class="st10 st11">the design and layout of a website or web </tspan><tspan x="0" y="70" class="st10 st11">pages.</tspan></text>
		<g>
			<rect x="246.4" y="161.5" class="st0" width="202.6" height="77.7"/>
			<text transform="matrix(1 0 0 1 246.4019 168.6012)"><tspan x="0" y="0" class="st10 st11">You can bring your vision to life with beautiful </tspan><tspan x="0" y="14" class="st10 st11">visuals. Our intuitive design tools make it easy to </tspan><tspan x="0" y="28" class="st10 st11">customize your website with your own unique </tspan><tspan x="0" y="42" class="st10 st11">style. Is a powerful tool that helps you create </tspan><tspan x="0" y="56" class="st10 st11">stunning and professional websites in no time.</tspan></text>
		</g>
		<text transform="matrix(1 0 0 1 28.3464 130.536)" class="st13 st14">about</text>
	</g>
	<g>
		<g>
			<g>
				<text transform="matrix(1 0 0 1 246.4019 380.3381)" class="st10 st11">se 2020 - ab 2021</text>
				<text transform="matrix(1 0 0 1 378.3616 380.3379)" class="st12 st11">riverview college</text>
				<text transform="matrix(1 0 0 1 347.8821 393.0046)" class="st10 st11">full stack web developer</text>
			</g>
		</g>
		<g>
			<g>
				<text transform="matrix(1 0 0 1 246.4019 430.9434)" class="st10 st11">se 2013 - ju 2015</text>
				<text transform="matrix(1 0 0 1 350.1716 430.9431)" class="st12 st11">cape coral conservatory</text>
				<text transform="matrix(1 0 0 1 364.7815 443.6099)" class="st10 st11">front-end developer</text>
			</g>
		</g>
		<g>
			<g>
				<text transform="matrix(1 0 0 1 246.4019 532.1537)" class="st10 st11">se 2010 - ju 2011</text>
				<text transform="matrix(1 0 0 1 365.9119 532.1536)" class="st12 st11">silver creek institute</text>
				<text transform="matrix(1 0 0 1 387.051 544.8202)" class="st10 st11">graphic design</text>
			</g>
		</g>
		<g>
			<g>
				<text transform="matrix(1 0 0 1 246.4019 481.5485)" class="st10 st11">se 2011 - ju 2013</text>
				<text transform="matrix(1 0 0 1 358.7615 481.5483)" class="st12 st11">angelwood university</text>
				<text transform="matrix(1 0 0 1 400.7312 494.215)" class="st10 st11">web design</text>
			</g>
		</g>
		<text transform="matrix(1 0 0 1 246.4019 349.5774)" class="st13 st14">education</text>
	</g>
	<g>
		<g>
			<text transform="matrix(1 0 0 1 246.4016 672.4961)" class="st10 st11">english</text>
			<text transform="matrix(1 0 0 1 331.5374 672.4958)" class="st10 st11">spanish</text>
			<text transform="matrix(1 0 0 1 424.5105 672.4961)" class="st10 st11">dutch</text>
		</g>
		<g>
			<text transform="matrix(1 0 0 1 246.4016 703.361)" class="st13 st15">10/10</text>
			<text transform="matrix(1 0 0 1 328.6526 703.3608)" class="st13 st15">7/10</text>
			<text transform="matrix(1 0 0 1 411.3616 703.361)" class="st13 st15">3/10</text>
		</g>
		<text transform="matrix(1 0 0 1 245.9448 646.5312)" class="st13 st14">languages</text>
	</g>
	<g>
		<text transform="matrix(1 0 0 1 28.3457 78.5078)" class="st13 st16">ora d. jones</text>
	</g>
</g>
</svg>
