<?xml version="1.0" encoding="utf-8"?>
<!-- Generator: Adobe Illustrator 27.5.0, SVG Export Plug-In . SVG Version: 6.00 Build 0)  -->
<svg version="1.1" xmlns="http://www.w3.org/2000/svg" xmlns:xlink="http://www.w3.org/1999/xlink" x="0px" y="0px"
	 viewBox="0 0 500 500" style="enable-background:new 0 0 500 500;" xml:space="preserve">
<g id="BACKGROUND">
	<rect style="fill:#BEB8DD;" width="500" height="500"/>
</g>
<g id="OBJECTS">
	<g style="display:none;">
	</g>
	<g>
		<path d="M308.742,336.846c1.634-0.365,3.018-0.744,4.426-0.972c1.845-0.3,3.711-0.664,5.565-0.649
			c1.243,0.01,2.557,0.469,3.707,1.008c2.523,1.184,3.518,3.339,3.229,6.058c-0.885,8.336-1.841,16.665-2.705,25.004
			c-1.122,10.825-1.267,21.666,0.176,32.465c1.588,11.89,3.39,23.751,5.131,35.62c0.894,6.097,1.346,12.215,1.057,18.376
			c-0.043,0.918-0.28,1.828-0.438,2.809c-1.79-0.153-2.342-1.371-2.609-2.629c-0.494-2.328-0.857-4.688-1.182-7.048
			c-0.995-7.23-1.992-14.461-2.904-21.702c-1.589-12.618-3.57-25.193-3.748-37.96c-0.117-8.423,0.707-16.746,1.989-25.044
			c0.342-2.214,0.708-4.424,1.038-6.64c0.091-0.613,0.092-1.24,0.165-2.327c-4.6,4.704-10.075,6.991-15.72,8.608
			c0,1.541-0.02,2.891,0.003,4.241c0.152,8.836-0.629,17.608-1.52,26.391c-0.889,8.768-1.474,17.573-1.973,26.375
			c-0.704,12.426-0.451,24.867-0.189,37.304c0.032,1.494,0.173,3.047-1.048,4.678c-0.378-0.972-0.828-1.706-0.935-2.488
			c-0.224-1.643-0.351-3.31-0.374-4.969c-0.181-13.016-0.427-26.037,0.458-39.035c0.466-6.846,1.116-13.686,1.901-20.504
			c1.151-9.993,1.735-20.016,1.983-30.064c0.009-0.349-0.051-0.7-0.096-1.261c-5.248,1.355-10.484,1.499-15.861,1.074
			c-0.143,0.453-0.331,0.836-0.379,1.236c-0.688,5.664-1.411,11.325-2.018,16.998c-0.745,6.97-1.423,13.947-2.063,20.926
			c-0.515,5.613-0.841,11.245-1.412,16.852c-0.853,8.37-0.727,16.749-0.556,25.138c0.109,5.349,0.128,10.7,0.164,16.05
			c0.004,0.673-0.131,1.347-0.241,2.398c-1.268-1.535-1.371-2.975-1.431-4.378c-0.161-3.829-0.355-7.662-0.333-11.492
			c0.045-8.022,0.087-16.048,0.39-24.063c0.196-5.193,0.852-10.369,1.303-15.552c0.532-6.12,0.953-12.252,1.628-18.355
			c0.667-6.028,1.598-12.027,2.399-18.04c0.333-2.502,0.629-5.01,0.962-7.678c-4.848-0.665-9.538-1.309-14.44-1.982
			c-0.107,1.104-0.16,2.16-0.318,3.199c-1.603,10.497-3.136,21.006-4.866,31.483c-1.508,9.134-2.694,18.289-3.319,27.534
			c-0.814,12.042-1.888,24.066-2.886,36.095c-0.079,0.957-0.432,1.891-0.752,3.232c-1.014-1.16-1.055-2.138-0.996-3.096
			c0.279-4.544,0.555-9.088,0.909-13.626c0.512-6.557,1.239-13.1,1.609-19.664c0.7-12.433,2.363-24.728,4.553-36.979
			c1.639-9.171,2.945-18.401,4.391-27.606c0.044-0.279,0.006-0.57,0.006-0.904c-5.185-1.908-10.363-3.813-15.674-5.768
			c-0.497,3.331-0.939,6.529-1.457,9.715c-2.228,13.69-4.534,27.367-6.7,41.067c-1.354,8.562-2.574,17.146-3.732,25.737
			c-0.752,5.584-1.363,11.19-1.886,16.8c-0.342,3.668-0.407,7.361-0.616,11.042c-0.047,0.826-0.178,1.648-0.283,2.583
			c-1.046-0.3-1.158-0.948-1.181-1.574c-0.093-2.525-0.402-5.075-0.167-7.572c0.764-8.125,1.711-16.234,2.627-24.345
			c1.776-15.739,5.26-31.195,7.804-46.807c1.474-9.047,2.915-18.099,4.406-27.37c-4.735-2.152-8.943-5.354-14.058-7.503
			c-0.07,1.173-0.16,2.083-0.172,2.993c-0.113,8.32-0.494,16.624-1.788,24.855c-1.56,9.922-3.201,19.832-4.812,29.746
			c-1.692,10.414-3.168,20.87-5.159,31.227c-1.457,7.582-1.504,15.232-2.116,22.858c-0.086,1.078-0.273,2.149-0.452,3.217
			c-0.113,0.675-0.388,1.312-1.209,1.269c-0.856-0.045-1.294-0.61-1.287-1.448c0.021-2.458,0.026-4.917,0.119-7.373
			c0.459-12.171,2.695-24.106,4.79-36.063c1.309-7.471,2.412-14.978,3.709-22.451c0.963-5.55,2.076-11.074,3.146-16.605
			c1.295-6.691,1.728-13.468,2.098-20.254c0.185-3.391,0.427-6.779,0.611-10.17c0.051-0.934,0.097-1.892-0.044-2.809
			c-0.58-3.771,1.345-6.264,4.278-8.06c1.207-0.738,1.809-1.416,1.727-2.838c-0.226-3.888-0.103-7.816-0.626-11.659
			c-0.354-2.598-1.471-5.118-2.454-7.59c-0.3-0.755-1.213-1.367-1.977-1.823c-8.933-5.339-17.988-10.482-26.815-15.99
			c-8.152-5.087-16.112-10.489-24.07-15.881c-4.444-3.011-8.38-6.642-11.839-10.773c-2.323-2.774-3.899-5.877-4.508-9.472
			c-0.422-2.491-0.255-4.93,0.672-7.251c0.909-2.276,2.029-4.467,3.064-6.692c0.213-0.458,0.524-0.878,0.682-1.351
			c2.831-8.474,7.042-16.316,11.176-24.182c4.674-8.892,9.522-17.693,14.249-26.557c2.477-4.644,5.66-8.716,9.491-12.309
			c1.688-1.582,3.263-3.286,4.975-4.839c0.853-0.774,1.081-1.577,0.942-2.679c-0.379-3.011-0.876-6.029-0.949-9.053
			c-0.133-5.481-0.078-10.971,0.086-16.451c0.051-1.699,0.587-3.419,1.116-5.061c1.422-4.419,4.426-7.269,8.773-8.936
			c4.964-1.904,10.49,0.18,13.374,3.587c2.463,2.91,3.685,6.345,4.492,9.976c0.266,1.196,0.425,2.416,0.669,3.835
			c0.531-0.26,1.015-0.484,1.488-0.73c2.495-1.298,4.932-2.725,7.494-3.87c2.975-1.329,5.68-0.396,8.025,1.621
			c2.22,1.91,3.463,4.442,3.975,7.283c0.172,0.955,0.035,2.032-0.216,2.986c-1.786,6.77-4.781,12.841-10.192,17.529
			c-2.453,2.126-4.785,4.391-7.145,6.568c0.457,2.751,0.964,5.371,1.313,8.012c0.482,3.647,0.816,7.313,1.287,10.962
			c0.086,0.666,0.445,1.336,0.811,1.92c1.419,2.259,2.927,4.464,4.325,6.736c0.406,0.66,0.687,1.458,0.793,2.226
			c0.155,1.117,0.777,1.65,1.771,1.91c0.348,0.091,0.696,0.218,1.05,0.246c4.269,0.343,7.365,2.698,10.056,5.789
			c3.728,4.283,5.644,9.367,6.57,14.873c0.151,0.9,0.496,1.559,1.058,2.268c2.844,3.584,5.243,7.433,6.699,11.817
			c0.967,2.912,0.442,5.739-0.527,8.494c-0.392,1.114-0.332,2.041,0.032,3.115c0.866,2.557,2.378,4.629,4.506,6.231
			c2.367,1.781,4.791,3.488,7.212,5.196c1.594,1.125,3.229,2.193,4.841,3.293c7.221,4.927,10.269,11.824,10.526,20.497
			c0.305,10.286-0.485,20.523-0.623,30.785C308.717,332.149,308.742,334.306,308.742,336.846z M243.717,157.114
			c-0.097,0.043-0.305,0.097-0.468,0.213c-6.009,4.283-11.914,8.685-17.117,13.967c-3.5,3.554-7.049,7.068-10.714,10.45
			c-6.441,5.944-11.762,12.685-15.764,20.519c-5.16,10.103-10.56,20.083-15.796,30.148c-3.702,7.117-7.066,14.38-9.652,22.004
			c-1.792,5.281-1.014,9.998,2.413,14.25c1.899,2.356,3.935,4.652,6.195,6.652c2.97,2.628,6.128,5.072,9.37,7.363
			c15.122,10.687,31.019,20.175,46.688,30.016c1.953,1.226,3.814,2.599,5.698,3.933c0.351,0.249,0.605,0.633,0.904,0.955
			c-0.06,0.073-0.12,0.147-0.179,0.22c-0.93-0.361-1.86-0.723-3.123-1.214c2.068,4.585,3.057,8.939,3.125,13.466
			c0.061,4.043-0.047,8.088-0.078,12.133c-0.006,0.777-0.001,1.555-0.001,2.106c3.174,1.293,6.1,2.51,9.046,3.678
			c4.094,1.624,8.161,3.334,12.315,4.791c10.421,3.654,21.113,5.457,32.181,4.159c2.626-0.308,5.264-0.655,7.777-1.759
			c-0.036-0.623-0.054-1.122-0.096-1.619c-0.992-11.777-0.693-23.56,0.05-35.328c0.447-7.083,0.476-14.158,0.289-21.238
			c-0.162-6.129-2.605-11.2-7.494-14.989c-1.712-1.327-3.52-2.532-5.258-3.827c-2.549-1.898-5.108-3.785-7.6-5.756
			c-2.482-1.963-4.444-4.339-5.368-7.449c-0.049-0.164-0.292-0.269-0.694-0.617c-1.67,3.456-3.283,6.793-5.074,10.498
			c-0.258-1.98,0.156-3.48,0.527-4.98c0.666-2.693,1.924-5.124,3.284-7.523c1.547-2.729,2.312-5.704,1.359-8.757
			c-1.504-4.816-4.223-9.009-7.346-12.929c-0.393-0.494-1.139-0.815-1.782-0.981c-1.642-0.424-3.253-0.136-4.425,1.103
			c-1.829,1.932-3.749,3.848-5.196,6.056c-4.714,7.192-9.227,14.517-13.831,21.782c-0.695,1.096-1.428,2.175-2.229,3.194
			c-0.234,0.298-0.764,0.362-1.159,0.534c-0.124-0.115-0.248-0.229-0.372-0.344c0.261-0.62,0.455-1.28,0.794-1.855
			c4.812-8.152,9.627-16.301,14.486-24.425c0.776-1.297,1.672-2.551,2.681-3.673c1.152-1.28,2.439-2.455,3.765-3.559
			c1.754-1.461,3.764-1.712,5.91-0.915c0.489,0.181,1.004,0.289,1.874,0.534c-1.538-3.468-2.657-6.715-4.345-9.633
			c-2.593-4.482-6.003-8.172-11.583-8.913c-0.493-0.065-1.02-0.203-1.435-0.462c-1.869-1.165-3.295-0.55-4.837,0.79
			c-3.103,2.698-5.457,5.969-7.637,9.386c-5.133,8.043-10.217,16.116-15.333,24.169c-0.475,0.747-1.032,1.441-1.551,2.16
			c-0.172-0.094-0.343-0.188-0.515-0.281c0.374-0.89,0.652-1.837,1.138-2.66c1.949-3.297,3.949-6.564,5.955-9.827
			c4.012-6.526,8.036-13.045,12.066-19.56c1.523-2.462,3.679-4.242,6.19-5.623c0.427-0.235,0.862-0.454,1.235-0.649
			c0.199-1.662-0.218-3.048-1.101-4.228c-2.38-3.184-4.76-6.373-7.295-9.432c-0.895-1.08-2.145-1.966-3.399-2.625
			c-1.513-0.795-3.184-1.673-4.949-1.229c-2.228,0.561-4.274,1.419-5.874,3.371c-6.447,7.865-11.722,16.48-16.74,25.284
			c-2.718,4.769-5.436,9.557-8.492,14.109c-1.792,2.669-4.238,4.901-6.424,7.299c-0.274,0.3-0.758,0.409-1.576,0.828
			c0.63-0.993,0.972-1.537,1.319-2.078c3.392-5.291,6.883-10.522,10.148-15.891c2.74-4.506,5.174-9.197,7.82-13.761
			c5.69-9.813,12.565-18.708,20.727-26.605c5.145-4.977,10.221-10.025,15.338-15.031c2.6-2.543,4.805-5.396,6.726-8.473
			c0.231-0.37,0.367-0.798,0.701-1.541c-1.302,0.783-2.231,1.332-3.15,1.897c-1.911,1.176-3.985,1.611-6.218,1.51
			c-4.401-0.2-7.784-3.633-7.653-8.051C242.94,160.596,243.429,158.851,243.717,157.114z M241.915,155.827
			c-0.436-2.321-0.745-4.318-1.196-6.283c-0.556-2.422-1.649-4.615-3.171-6.584c-6.051-7.826-15.623-4.216-18.533,2.03
			c-1.335,2.864-1.877,5.91-2.015,9.029c-0.302,6.793,0.007,13.568,0.742,20.325c0.051,0.472,0.127,0.941,0.264,1.944
			C225.611,168.604,233.145,161.493,241.915,155.827z M322.249,349.948c-1.851,1.321-3.577,2.746-5.478,3.875
			c-6.595,3.917-13.79,5.881-21.435,6.151c-9.795,0.345-19.343-1.164-28.493-4.608c-8.374-3.152-16.594-6.711-24.876-10.105
			c-0.459-0.188-0.883-0.48-1.293-0.768c-0.818-0.576-0.877-1.35-0.265-2.049c0.561-0.642,1.275-1.153,1.945-1.694
			c0.497-0.402,1.049-0.751,0.514-1.807c-0.991,0.75-2.002,1.322-2.766,2.129c-2.361,2.495-1.953,4.161,1.21,5.579
			c1.709,0.766,3.502,1.423,5.06,2.434c7.097,4.603,14.989,7.429,22.811,10.42c0.603,0.231,1.251,0.345,1.878,0.516
			c4.691,1.275,9.518,1.662,14.314,2.306c8.799,1.18,17.275,0.221,25.524-3.04c3.889-1.537,7.282-3.797,10.324-6.634
			C322.016,351.911,322.415,351.066,322.249,349.948z M253.077,152.485c-2.249,1.387-4.291,2.964-6.116,4.804
			c-2.161,2.178-2.632,5.421-1.27,8.191c0.966,1.964,2.497,3.055,4.723,3.269c3.946,0.38,6.686-1.788,9.247-4.298
			c0.305-0.299,0.328-1.093,0.206-1.59C258.833,158.664,256.527,155.282,253.077,152.485z M235.335,197.373
			c2.316-0.139,4.47,0.33,6.397,1.27c1.945,0.949,3.665,2.356,5.583,3.627c-0.668-4.938-1.325-9.791-2.01-14.857
			C241.82,190.895,238.577,194.134,235.335,197.373z M254.205,152.016c1.063,1.169,2.067,2.192,2.974,3.295
			c0.867,1.055,1.731,2.136,2.414,3.311c0.691,1.188,1.159,2.506,1.725,3.767c0.634-0.748,1.075-1.486,1.034-2.197
			c-0.211-3.675-1.657-6.663-5.049-8.49C256.241,151.131,255.279,151.022,254.205,152.016z M308.699,339.626
			c0.035,0.48,0.075,1.024,0.121,1.656c0.483-0.05,0.841-0.046,1.177-0.129c1.535-0.381,3.07-0.766,4.594-1.187
			c2.608-0.721,5.229-0.913,7.952-0.252c-0.622-0.694-1.26-1.271-2.003-1.627c-1.8-0.86-3.656-0.507-5.491-0.05
			C313.037,338.538,311.028,339.043,308.699,339.626z"/>
		<path d="M251.473,107.024c0.211-0.967,0.404-1.938,0.635-2.899c1.586-6.601,3.081-13.227,4.807-19.791
			c1.049-3.989,2.618-7.834,4.863-11.316c1.163-1.804,2.647-3.415,4.086-5.023c0.561-0.627,1.354-1.095,2.118-1.483
			c3.143-1.594,6.143-0.452,6.967,2.958c0.585,2.423,0.737,5.003,0.714,7.509c-0.04,4.23-1.263,8.27-2.584,12.257
			c-2.846,8.59-6.459,16.867-10.276,25.058c-4.009,8.603-7.015,17.576-9.888,26.598c-0.481,1.509-0.754,3.085-1.115,4.632
			c-0.143,0.614-0.101,1.517-0.979,1.385c-0.495-0.074-1.064-0.683-1.313-1.191c-1.018-2.074-1.884-4.221-2.88-6.306
			c-5.483-11.483-10.791-23.04-14.679-35.185c-2.234-6.978-2.984-14.119-1.988-21.41c0.437-3.196,1.518-6.165,3.187-8.917
			c0.918-1.513,2.116-2.748,3.759-3.487c2.652-1.193,5.16-1.102,7.538,0.739c2.004,1.552,3.416,3.474,4.253,5.878
			c1.55,4.449,1.691,9.066,1.802,13.696c0.11,4.553,0.225,9.106,0.352,13.659c0.024,0.852,0.111,1.701,0.17,2.552
			C251.172,106.966,251.322,106.995,251.473,107.024z M251.534,114.927c-0.256,0.02-0.512,0.039-0.769,0.059
			c-0.253-0.621-0.614-1.221-0.735-1.866c-0.239-1.275-0.425-2.571-0.493-3.865c-0.366-6.996-0.681-13.994-1.031-20.991
			c-0.18-3.608-0.386-7.211-1.573-10.677c-0.65-1.899-1.706-3.493-3.247-4.771c-2.094-1.736-4.049-2.034-6.384-0.649
			c-1.077,0.639-2.057,1.606-2.787,2.634c-1.521,2.142-2.399,4.597-2.829,7.198c-0.809,4.902-0.6,9.79,0.239,14.663
			c1.086,6.306,3.248,12.287,5.762,18.127c3.826,8.886,7.831,17.695,11.772,26.532c0.131,0.293,0.392,0.528,0.716,0.953
			c0.404-1.087,0.741-1.958,1.054-2.837c2.781-7.821,5.295-15.749,8.406-23.436c3.358-8.297,7.131-16.428,10.03-24.909
			c0.979-2.866,1.807-5.789,2.574-8.72c0.942-3.6,1.143-7.281,0.649-10.97c-0.459-3.429-2.322-4.31-5.017-2.216
			c-1.566,1.217-2.97,2.76-4.101,4.396c-2.566,3.708-4.357,7.85-5.523,12.184c-2.438,9.061-4.797,18.148-6.205,27.447
			C251.953,113.796,251.707,114.356,251.534,114.927z"/>
		<path d="M260.647,139.297c0.22-3.033,2.198-5.626,5.009-7.591c1.197-0.836,2.734-1.032,4.099-0.126
			c1.298,0.862,1.578,2.23,1.388,3.645c-0.487,3.625-2.395,6.317-5.709,7.866C262.806,144.32,260.658,142.811,260.647,139.297z
			 M269.06,135.648c0.076-2.365-0.718-2.94-2.487-2.226c-2.797,1.13-3.882,3.506-4.281,6.224c-0.279,1.9,0.969,2.71,2.678,1.785
			C267.403,140.115,268.647,137.922,269.06,135.648z"/>
		<path d="M227.996,130.51c-0.257-0.027-0.716,0.01-1.113-0.13c-3.356-1.177-6.002-3.158-7.027-6.73
			c-0.785-2.737,0.953-4.722,3.798-4.498c3.521,0.277,7.772,4.614,7.955,8.117C231.714,129.255,230.373,130.519,227.996,130.51z
			 M228.398,129.239c1.55,0.003,2.294-0.973,1.971-2.582c-0.519-2.579-4.202-5.503-6.833-5.422
			c-1.346,0.041-1.942,0.745-1.765,2.083C222.128,126.012,225.734,129.234,228.398,129.239z"/>
		<path d="M320.097,428.646c-5.401-0.31-10.801-0.59-16.139,0.754c-0.21-1.294,0.462-1.576,1.024-1.772
			c4.605-1.604,9.272-1.789,13.967-0.432c0.483,0.14,0.879,0.579,1.315,0.879C320.209,428.265,320.153,428.455,320.097,428.646z"/>
		<path d="M321.369,443.69c-5.491,0.237-10.981,0.475-16.816,0.727c0.486-0.482,0.749-0.973,1.114-1.066
			c1.739-0.443,3.493-1.004,5.264-1.1c2.791-0.15,5.604-0.026,8.401,0.125c0.768,0.042,1.508,0.593,2.261,0.91
			C321.518,443.421,321.444,443.556,321.369,443.69z"/>
		<path d="M303.443,436.92c2.718-2.721,13.468-3.319,16.629-0.816c-1.841,0.897-3.686,0.127-5.463,0.289
			c-1.864,0.171-3.742,0.187-5.607,0.354c-1.819,0.162-3.628,0.429-5.442,0.649C303.521,437.238,303.482,437.079,303.443,436.92z"/>
		<path d="M320.273,452.272c-4.792,0.788-9.582,1.582-14.377,2.35c-0.235,0.038-0.504-0.141-0.846-0.245
			c0.244-1.327,1.311-1.59,2.193-1.907c3.449-1.239,7.013-1.575,10.645-1.095c0.813,0.107,1.615,0.3,2.421,0.453
			C320.298,451.976,320.286,452.124,320.273,452.272z"/>
		<path d="M277.892,439.764c-4.391-0.467-8.782-0.935-13.149-1.4c-0.197-1.194,0.627-1.395,1.288-1.499
			c3.71-0.583,7.344-0.259,10.817,1.231c0.515,0.221,0.895,0.76,1.337,1.151C278.086,439.42,277.989,439.592,277.892,439.764z"/>
		<path d="M278.294,454.401c-4.821-0.27-9.332-0.515-13.841-0.792c-0.228-0.014-0.44-0.294-0.666-0.455
			c0.991-1.291,1.879-1.495,5.543-1.34C275.433,452.073,277.068,452.493,278.294,454.401z"/>
		<path d="M283.522,418.121c4.296,0.623,8.531-0.207,12.792-0.667c0.077-0.008,0.177,0.205,0.468,0.563
			c-0.676,0.457-1.281,1.092-2.012,1.321c-3.286,1.029-6.648,1.217-10.036,0.537C283.936,419.715,283.151,419.473,283.522,418.121z"
			/>
		<path d="M275.565,118.278c-0.042,2.404-2.864,4.554-5.194,3.956c-1.47-0.377-2.3-2.258-1.604-3.893
			c0.625-1.467,1.766-2.474,3.328-2.875C273.926,114.995,275.598,116.384,275.565,118.278z M274.145,118.753
			c0.08-1.036-0.795-1.804-1.773-1.557c-1.017,0.257-2.341,1.791-2.428,2.802c-0.059,0.68,0.236,1.108,0.901,1.24
			C272.139,121.494,274.044,120.05,274.145,118.753z"/>
		<path d="M242.61,451.176c0.667,0,1.232-0.122,1.718,0.02c2.814,0.825,5.687,0.863,8.584,0.844
			c1.166-0.008,2.473-0.195,3.382,0.937c-1.218,1.021-3.962,1.394-7.024,0.993C245.847,453.521,243.689,452.662,242.61,451.176z"/>
		<path d="M298.365,451.896c-3.091,2.086-6.561,2.728-10.183,2.717c-1.152-0.004-2.48,0.335-3.443-1.072
			c1.482-1.03,3.106-0.42,4.564-0.714c1.484-0.299,2.974-0.572,4.462-0.852C295.268,451.693,296.74,450.891,298.365,451.896z"/>
		<path d="M301.779,378.887c-0.43,0.468-0.671,0.939-1.047,1.101c-1.117,0.484-2.26,1.069-3.441,1.209
			c-2.351,0.28-4.733,0.37-7.104,0.383c-1.504,0.008-2.051-0.375-3.324-1.614c1.309,0,2.46,0.018,3.61-0.005
			c1.298-0.026,2.6-0.034,3.891-0.153c1.217-0.112,2.418-0.385,3.633-0.536C299.159,379.128,300.245,378.284,301.779,378.887z"/>
		<path d="M283.502,433.651c4.297-0.61,8.409-1.197,12.522-1.764c0.187-0.026,0.399,0.135,0.841,0.299
			c-0.282,0.431-0.44,0.985-0.775,1.13c-1.18,0.508-2.397,1.126-3.643,1.242c-2.42,0.226-4.869,0.169-7.306,0.166
			C284.463,434.722,283.693,434.629,283.502,433.651z"/>
		<path d="M303.922,413.572c2.618-1.694,5.625-1.646,8.598-1.47c1.499,0.089,3.156,0.184,4.338,2.022c-2.356,0-4.448,0-6.539,0
			c-2.104,0-4.208,0-6.313,0C303.978,413.94,303.95,413.756,303.922,413.572z"/>
		<path d="M304.092,421.584c0.888-1.667,2.2-1.865,3.402-2.094c4.013-0.764,8.63-0.138,10.847,1.582
			c-2.559,0.508-4.878-0.039-7.162,0.113C308.937,421.335,306.691,421.44,304.092,421.584z"/>
		<path d="M265.496,421.551c1.554-0.977,3.325-0.828,5.069-0.604c2.513,0.322,5.109,0.477,7.346,2.536
			c-0.547,0.258-0.797,0.489-1.016,0.463c-3.427-0.414-6.851-0.852-10.272-1.316c-0.382-0.052-0.736-0.304-1.103-0.463
			C265.513,421.962,265.504,421.757,265.496,421.551z"/>
		<path d="M282.835,426.564c4.436,0.247,8.731-0.424,13.017-1.216c0.137-0.025,0.324,0.226,0.723,0.524
			c-1.719,1.645-3.796,2.025-5.889,2.229C286.386,428.519,284.075,428.101,282.835,426.564z"/>
		<path d="M300.39,385.483c-0.249,0.315-0.435,0.775-0.76,0.918c-1.113,0.493-2.253,1.142-3.424,1.242
			c-2.439,0.208-4.905,0.151-7.358,0.102c-0.869-0.017-1.893-0.099-2.124-1.697c2.412,0,4.701,0.14,6.964-0.04
			c2.169-0.173,4.312-0.679,6.467-1.039C300.232,385.14,300.311,385.311,300.39,385.483z"/>
		<path d="M204.854,131.111c2.171-1.249,10.152-1.209,14.327-0.028C217.329,132.411,207.638,132.493,204.854,131.111z"/>
		<path d="M296.513,444.95c-0.214,0.331-0.355,0.764-0.654,0.978c-3.34,2.392-7.096,2.645-10.99,2.015
			c-0.619-0.1-1.307-0.38-0.971-1.44c2.096-0.109,4.262-0.036,6.359-0.383c2.014-0.333,3.955-1.1,5.928-1.677
			C296.294,444.612,296.404,444.781,296.513,444.95z"/>
		<path d="M265.442,149.946c2.671-1.563,10.753-2.486,13.161-1.597c-0.895,1.014-0.895,1.014-6.307,1.719
			C267.035,150.754,266.957,150.753,265.442,149.946z"/>
		<path d="M284.284,411.732c1.61,0.112,2.983,0.296,4.353,0.279c1.43-0.018,2.857-0.239,4.286-0.352
			c1.377-0.109,2.699-0.98,4.176-0.381c-0.776,1.48-2.648,2.305-5.543,2.505C287.746,414.044,285.588,413.512,284.284,411.732z"/>
		<path d="M268.398,395.545c3.105-1.515,6.134-0.758,9.133,0.092c0.888,0.252,2.003,0.49,2.001,2.143
			c-0.757-0.034-1.462,0.066-2.084-0.116C274.479,396.798,271.317,396.795,268.398,395.545z"/>
		<path d="M264.215,389.387c-2.648,1.207-10.919-1.769-12.68-4.609c0.322-0.028,0.616-0.141,0.842-0.061
			c3.857,1.365,7.706,2.75,11.549,4.154C264.065,388.921,264.119,389.206,264.215,389.387z"/>
		<path d="M283.256,440.189c4.171-0.406,8.177-0.796,12.448-1.211c-0.348,0.439-0.521,0.872-0.825,1.003
			c-1.243,0.535-2.493,1.219-3.802,1.398c-1.91,0.261-3.874,0.195-5.812,0.153C284.07,441.505,284.072,441.409,283.256,440.189z"/>
		<path d="M246.227,417.82c4.356,0.923,8.457,1.79,12.554,2.672c0.095,0.02,0.152,0.218,0.329,0.488
			c-1.331,1.152-2.9,0.741-4.361,0.604C251.292,421.26,247.306,419.524,246.227,417.82z"/>
		<path d="M258.161,428.185c-1.525,1.701-2.579,1.684-8.397,0.157c-1.429-0.375-3.08-0.522-4.156-2.579
			C250.122,426.634,254.141,427.41,258.161,428.185z"/>
		<path d="M278.13,417.481c-3.756-0.408-7.512-0.807-11.265-1.239c-0.302-0.035-0.577-0.303-0.911-0.488
			C268.435,413.839,275.837,414.712,278.13,417.481z"/>
		<path d="M297.645,405.359c-1.719,1.648-3.948,1.884-6.246,1.861c-3.433-0.035-5.348-0.653-6.315-2.146
			c2.193,0.142,4.247,0.444,6.285,0.361c2.036-0.083,4.056-0.552,6.083-0.852C297.517,404.842,297.581,405.1,297.645,405.359z"/>
		<path d="M256.053,458.997c-2.347,2.422-8.248,2.639-11.34,0.453c1.2-0.897,2.5-0.222,3.701-0.357
			c1.285-0.145,2.581-0.196,3.869-0.315C253.526,458.663,254.79,458.245,256.053,458.997z"/>
		<path d="M277.282,431.697c-4.098-0.412-8.195-0.825-12.656-1.274c0.519-0.486,0.771-0.933,1.064-0.962
			c1.627-0.16,3.289-0.439,4.891-0.258c2.381,0.269,4.743,0.826,6.836,2.084C277.372,431.424,277.327,431.561,277.282,431.697z"/>
		<path d="M296.291,457.779c-1.797,2.246-4.076,2.376-6.183,2.709c-1.493,0.236-3.153,0.607-4.4-0.879
			C286.95,458.763,293.488,457.569,296.291,457.779z"/>
		<path d="M227.857,443.37c1.53-0.922,3.211-0.59,4.809-0.153c2.206,0.604,4.535,1.072,6.016,3.178
			c-2.02,0.504-3.635-0.756-5.43-1.141c-1.804-0.387-3.597-0.829-5.394-1.247C227.857,443.795,227.857,443.583,227.857,443.37z"/>
		<path d="M275.984,142.021c-2.221,2.135-9.412,5.192-12.064,5.158c0.564-0.566,0.851-1.046,1.271-1.245
			C268.513,144.363,271.604,142.13,275.984,142.021z"/>
		<path d="M254.969,366.246c1.841-0.222,12.039,3.95,13.657,5.458C263.336,371.136,259.062,368.915,254.969,366.246z"/>
		<path d="M256.734,444.6c-3.532,1.29-11.059-0.26-12.892-3.153c0.838,0.191,1.437,0.267,1.993,0.465
			c2.383,0.848,4.797,1.483,7.357,1.484c0.781,0,1.58,0.162,2.336,0.373C255.929,443.882,256.256,444.259,256.734,444.6z"/>
		<path d="M251.018,391.494c1.161-0.026,10.869,3.25,11.853,4.052c-1.599,0.951-3.107,0.239-4.545-0.15
			C254.231,394.288,251.828,392.945,251.018,391.494z"/>
		<path d="M270.696,383.342c0.647-1.117,1.738-0.797,2.656-0.782c3.703,0.061,6.651,0.978,8.075,2.527
			c-0.435,0.146-0.808,0.391-1.168,0.374C277.414,385.328,271.707,384.066,270.696,383.342z"/>
		<path d="M285.609,399.758c2.103,0,4.216,0.135,6.305-0.038c2.085-0.173,4.145-0.654,6.743-1.088
			c-0.573,0.783-0.756,1.287-1.102,1.455c-0.831,0.403-1.715,0.784-2.618,0.931c-2.791,0.454-5.582,0.357-8.323-0.397
			c-0.39-0.107-0.737-0.37-1.104-0.56C285.542,399.96,285.576,399.859,285.609,399.758z"/>
		<path d="M243.903,433.802c4.507,0.757,8.512,1.427,12.515,2.107c0.292,0.05,0.573,0.17,0.712,0.498
			c-2.372,1.233-4.554,0.546-6.662,0.165C248.281,436.177,245.997,435.783,243.903,433.802z"/>
		<path d="M265.258,461.021c1.984-2.125,7.597-2.336,11.266-0.599c-1.102,0.298-1.873,0.679-2.646,0.684
			C271.131,461.122,268.359,461.656,265.258,461.021z"/>
		<path d="M275.508,447.49c-0.404,0.038-0.73,0.112-1.049,0.092c-3.222-0.201-6.443-0.411-9.663-0.645
			c-0.165-0.012-0.314-0.255-0.473-0.392c1.265-1.238,2.695-1.464,6.666-1.072C273.616,445.733,274.584,446.143,275.508,447.49z"/>
		<path d="M278.874,410.996c-4.329-0.664-8.196-1.257-12.263-1.88c1.336-1.4,2.966-0.991,4.431-0.983
			C274.703,408.152,277.272,409.04,278.874,410.996z"/>
		<path d="M305.674,388.753c2.482-2.676,7.721-3.418,10.464-1.72c-1.609,1.131-3.431,0.906-5.105,1.171
			C309.411,388.462,307.794,389.079,305.674,388.753z"/>
		<path d="M265.065,382.076c-3.058,1.137-10.157-1.35-12.579-4.033c1.693-0.184,2.907,0.774,4.245,1.209
			c1.37,0.445,2.699,1.015,4.064,1.479C262.207,381.211,263.64,381.63,265.065,382.076z"/>
		<path d="M253.528,371.577c1.506-0.001,11.538,3.577,12.687,4.524C263.682,376.795,255.142,373.749,253.528,371.577z"/>
		<path d="M247.798,410.51c4.083,0.921,8.011,1.806,12.251,2.762c-1.223,1.325-2.486,0.963-3.594,0.864
			C252.674,413.798,249.003,412.217,247.798,410.51z"/>
		<path d="M288.266,373.217c4.221,0.566,8.312,0.348,12.387-0.961c-0.563,1.814-2.053,2.246-3.48,2.4
			C294.103,374.986,290.976,375.286,288.266,373.217z"/>
		<path d="M277.246,155.156c-3.771,0.221-7.396,0.158-11.062-1.55C268.657,152.166,275.348,153.202,277.246,155.156z"/>
		<path d="M260.939,406.718c-3.073,1.279-9.746-0.321-12.352-2.977c1.594-0.379,2.778,0.532,4.069,0.862
			c1.388,0.355,2.79,0.659,4.166,1.056C258.141,406.04,259.66,405.723,260.939,406.718z"/>
		<path d="M256.3,361.051c4.117,1.139,7.809,2.39,11.841,4.03C265.244,366.041,258.081,363.548,256.3,361.051z"/>
		<path d="M228.194,112.429c0.042,1.339-0.778,1.984-2.085,1.64c-1.571-0.414-2.857-1.848-2.998-3.344
			c-0.157-1.668,1.138-2.623,2.649-1.954C226.818,109.24,228.157,111.252,228.194,112.429z M224.655,109.886
			c0.371,2.227,0.49,2.341,2.762,2.812C227.07,111.252,226.479,110.155,224.655,109.886z"/>
		<path d="M305.572,401.181c2.559-2.491,8.811-2.741,10.827-0.603C312.644,400.787,309.108,400.984,305.572,401.181z"/>
		<path d="M298.605,392.426c-2.438,2.349-8.946,2.356-12.635,0.027c2.449-0.267,4.497,0.398,6.565,0.445
			C294.569,392.944,296.518,391.949,298.605,392.426z"/>
		<path d="M217.214,127.409c-3.838-0.232-7.128-1.382-10.463-2.286c-0.404-0.11-0.734-0.488-1.217-0.824
			C207.94,123.451,214.148,125.1,217.214,127.409z"/>
		<path d="M281.272,391.422c-3.633-0.557-7.266-1.114-11.04-1.693c0.451-0.977,1.23-1.067,1.995-1.109
			c3.305-0.182,6.337,0.688,9.18,2.25C281.363,391.055,281.318,391.238,281.272,391.422z"/>
		<path d="M235.991,453.319c-3.028-0.622-6.056-1.244-9.321-1.914c0.343-0.505,0.443-0.839,0.645-0.921
			C229.891,449.442,234.249,450.669,235.991,453.319z"/>
		<path d="M316.632,407.215c-3.68-0.154-7.361-0.309-11.086-0.465C306.877,404.749,313.938,404.821,316.632,407.215z"/>
		<path d="M267.43,403.315c2.389-1.613,8.572-1.026,10.489,0.969c-1.216,0.772-2.352-0.013-3.463-0.07
			c-1.149-0.059-2.294-0.23-3.437-0.382C269.873,403.679,268.617,404.093,267.43,403.315z"/>
		<path d="M316.255,381.654c-3.118,0.355-6.235,0.71-9.353,1.065c-0.057-0.179-0.115-0.358-0.172-0.536
			c0.723-1.102,1.966-1.354,3.198-1.517c2.142-0.283,4.313-0.63,6.324,0.39C316.253,381.254,316.254,381.454,316.255,381.654z"/>
		<path d="M208.309,117.875c2.015-0.163,5.706,1.767,8.134,4.413c-0.865-0.074-1.509,0.025-2.006-0.199
			c-1.827-0.824-3.625-1.719-5.391-2.667C208.516,119.137,207.908,118.693,208.309,117.875z"/>
		<path d="M317.304,363.857c-1.743,0.907-8.734,2.434-10.392,2.16c2.615-1.732,5.25-2.421,7.943-2.917
			C315.662,362.951,316.565,362.875,317.304,363.857z"/>
		<path d="M270.874,378.258c2.609-1.576,9.227-0.531,11.381,1.738C278.208,379.378,274.541,378.818,270.874,378.258z"/>
		<path d="M273.045,366.826c2.256-1.202,4.544-0.708,6.788-0.276c1.173,0.226,2.537,0.344,3.467,2.113
			C279.568,368.253,276.328,367.498,273.045,366.826z"/>
		<path d="M305.522,394.936c2.175-1.471,4.338-1.357,6.393-1.418c1.328-0.039,2.82-0.141,4.18,1.368
			c-3.388,0.188-6.421,0.365-9.455,0.511C306.406,395.408,306.162,395.208,305.522,394.936z"/>
		<path d="M232.554,414.92c0.74-0.929,1.661-0.579,2.532-0.421c3.24,0.586,5.339,1.675,6.437,3.326
			C240.241,417.931,233.969,415.926,232.554,414.92z"/>
		<path d="M272.417,372.517c2.63-1.055,8.47-0.213,10.827,1.645c-0.354,0.16-0.663,0.438-0.919,0.395
			c-3.245-0.537-6.483-1.117-9.72-1.704C272.524,372.839,272.478,372.634,272.417,372.517z"/>
		<path d="M317.353,374.732c-3.52,0.679-6.675,1.277-10.226,1.425C309.162,373.884,314.172,373.205,317.353,374.732z"/>
		<path d="M260.995,401.595c-4.22,0.181-8.025-1.199-11.655-3.272c1.383-0.45,2.516,0.397,3.75,0.703
			c1.391,0.345,2.782,0.691,4.178,1.018c1.285,0.301,2.575,0.577,3.863,0.864C261.085,401.137,261.04,401.366,260.995,401.595z"/>
		<path d="M234.42,404.727c1.582-1.511,3.051-0.695,4.451-0.176c1.597,0.592,3.401,1.003,4.021,3.146
			C240.068,406.706,237.244,405.717,234.42,404.727z"/>
		<path d="M238.904,429.168c-2.656-0.871-5.312-1.742-8.054-2.641c0.467-1.31,1.354-1.095,2.045-0.96
			c2.371,0.464,4.684,1.096,6.272,3.06C239.08,428.807,238.992,428.987,238.904,429.168z"/>
		<path d="M240.005,424.109c-1.677-0.701-3.042-1.318-4.442-1.842c-1.369-0.512-2.773-0.929-4.28-1.427
			c0.627-1.341,1.569-1.005,2.326-0.887C236.12,420.343,239.098,422.233,240.005,424.109z"/>
		<path d="M237.3,388.173c2.453-1.351,7.373,0.376,9.227,3.138C243.374,390.239,240.457,389.247,237.3,388.173z"/>
		<path d="M307.093,371.394c1.97-2.288,7.058-3.26,9.686-2.19c-1.579,1.046-3.327,0.831-4.904,1.215
			C310.296,370.803,308.689,371.074,307.093,371.394z"/>
		<path d="M289.897,368.215c1.834,0,3.677,0.114,5.499-0.033c1.735-0.14,3.449-0.553,5.334-0.874
			C298.857,369.573,292.875,370.168,289.897,368.215z"/>
		<path d="M235.159,458.914c-1.803,0.793-5.343,0.522-7.371-0.59c0.044-0.963,0.775-1.034,1.49-1.122
			C231.44,456.934,233.982,457.674,235.159,458.914z"/>
		<path d="M249.243,370.741c-3.235-0.905-6.349-1.775-9.586-2.68C241.892,366.626,247.827,368.3,249.243,370.741z"/>
		<path d="M240.053,372.386c2.955-1.23,7.52,0.372,8.609,2.788C245.655,374.2,242.854,373.293,240.053,372.386z"/>
		<path d="M240.573,363.587c2.296-1.392,7.61,0.262,9.456,3.04C246.704,365.559,243.72,364.599,240.573,363.587z"/>
		<path d="M235.846,393.711c2.51-1.165,7.306,0.516,9.135,3.288C241.761,395.84,238.906,394.812,235.846,393.711z"/>
		<path d="M230.079,432.015c2.499-1.488,6.733-0.081,8.136,2.435C235.449,433.749,232.924,433.026,230.079,432.015z"/>
		<path d="M240.174,359.33c2.934-1.131,8.036,0.04,10.413,2.477C246.943,360.94,243.73,360.175,240.174,359.33z"/>
		<path d="M237.306,440.422c-1.256,0.104-6.693-1.616-8.115-2.627c2.429-0.733,4.449,0.222,6.475,0.937
			C236.428,439.001,237.352,439.28,237.306,440.422z"/>
		<path d="M243.554,402.613c-2.642-0.926-5.285-1.852-8.222-2.881C237.914,398.618,242.07,400.04,243.554,402.613z"/>
		<path d="M247.459,379.917c-2.899-1.002-5.487-1.896-8.218-2.84C241.692,375.81,246.094,377.298,247.459,379.917z"/>
		<path d="M234.129,409.626c1.756-1.115,5.692,0.268,7.493,2.633C240.468,412.333,235.159,410.468,234.129,409.626z"/>
		<path d="M246.881,385.432c-2.768-0.919-5.537-1.836-8.3-2.77c-0.081-0.027-0.101-0.236-0.234-0.577
			C241.875,381.587,244.545,383.101,246.881,385.432z"/>
		<path d="M241.142,354.676c3.373,0.034,6.688,0.306,9.601,2.2c-0.043,0.182-0.087,0.364-0.13,0.546
			c-3.188-0.754-6.377-1.507-9.565-2.261C241.079,355,241.11,354.838,241.142,354.676z"/>
		<path style="fill:#FFFFFF;" d="M243.717,157.114c-0.288,1.737-0.776,3.482-0.829,5.239c-0.131,4.419,3.252,7.852,7.653,8.051
			c2.233,0.102,4.307-0.333,6.218-1.51c0.919-0.566,1.848-1.114,3.15-1.897c-0.334,0.743-0.47,1.171-0.701,1.541
			c-1.922,3.077-4.127,5.93-6.726,8.473c-5.117,5.006-10.194,10.053-15.338,15.031c-8.162,7.897-15.037,16.791-20.727,26.605
			c-2.646,4.564-5.08,9.255-7.82,13.761c-3.265,5.368-6.756,10.6-10.148,15.891c-0.347,0.541-0.689,1.085-1.319,2.078
			c0.818-0.418,1.302-0.527,1.576-0.828c2.186-2.397,4.632-4.63,6.424-7.299c3.057-4.552,5.774-9.34,8.492-14.109
			c5.018-8.804,10.293-17.419,16.74-25.284c1.6-1.952,3.645-2.81,5.874-3.371c1.765-0.444,3.436,0.434,4.949,1.229
			c1.254,0.659,2.504,1.545,3.399,2.625c2.535,3.059,4.915,6.248,7.295,9.432c0.883,1.181,1.3,2.566,1.101,4.228
			c-0.373,0.196-0.808,0.415-1.235,0.649c-2.511,1.381-4.667,3.161-6.19,5.623c-4.03,6.515-8.054,13.034-12.066,19.56
			c-2.006,3.263-4.006,6.53-5.955,9.827c-0.487,0.823-0.764,1.77-1.138,2.66c0.172,0.094,0.343,0.188,0.515,0.281
			c0.519-0.719,1.076-1.413,1.551-2.16c5.116-8.054,10.201-16.127,15.333-24.169c2.18-3.417,4.534-6.688,7.637-9.386
			c1.542-1.341,2.968-1.955,4.837-0.79c0.415,0.259,0.943,0.396,1.435,0.462c5.58,0.74,8.99,4.43,11.583,8.913
			c1.688,2.918,2.807,6.164,4.345,9.633c-0.869-0.245-1.385-0.353-1.874-0.534c-2.146-0.796-4.156-0.545-5.91,0.915
			c-1.326,1.104-2.613,2.279-3.765,3.559c-1.009,1.122-1.905,2.376-2.681,3.673c-4.859,8.124-9.674,16.273-14.486,24.425
			c-0.339,0.574-0.533,1.234-0.794,1.855c0.124,0.115,0.248,0.229,0.372,0.344c0.395-0.172,0.925-0.236,1.159-0.534
			c0.801-1.02,1.534-2.098,2.229-3.194c4.605-7.265,9.117-14.589,13.831-21.782c1.447-2.208,3.368-4.125,5.196-6.056
			c1.172-1.238,2.783-1.526,4.425-1.103c0.643,0.166,1.389,0.487,1.782,0.981c3.123,3.92,5.842,8.113,7.346,12.929
			c0.953,3.052,0.187,6.027-1.359,8.757c-1.36,2.399-2.617,4.83-3.284,7.523c-0.371,1.5-0.785,3-0.527,4.98
			c1.791-3.705,3.404-7.042,5.074-10.498c0.401,0.348,0.645,0.454,0.694,0.617c0.925,3.109,2.886,5.486,5.368,7.449
			c2.492,1.971,5.051,3.858,7.6,5.756c1.738,1.295,3.546,2.499,5.258,3.827c4.889,3.789,7.333,8.86,7.494,14.989
			c0.187,7.081,0.158,14.156-0.289,21.238c-0.743,11.768-1.042,23.551-0.05,35.328c0.042,0.497,0.06,0.997,0.096,1.619
			c-2.513,1.104-5.151,1.451-7.777,1.759c-11.068,1.298-21.759-0.505-32.181-4.159c-4.154-1.457-8.22-3.167-12.315-4.791
			c-2.946-1.168-5.872-2.386-9.046-3.678c0-0.551-0.005-1.329,0.001-2.106c0.031-4.044,0.14-8.09,0.078-12.133
			c-0.069-4.527-1.057-8.881-3.125-13.466c1.264,0.491,2.193,0.853,3.123,1.214c0.06-0.073,0.119-0.146,0.179-0.22
			c-0.299-0.322-0.554-0.706-0.904-0.955c-1.884-1.334-3.745-2.707-5.698-3.933c-15.669-9.841-31.566-19.329-46.688-30.016
			c-3.242-2.291-6.399-4.734-9.37-7.363c-2.26-2-4.296-4.296-6.195-6.652c-3.427-4.252-4.205-8.969-2.413-14.25
			c2.586-7.624,5.95-14.886,9.652-22.004c5.236-10.065,10.635-20.045,15.796-30.148c4.002-7.835,9.322-14.576,15.764-20.519
			c3.665-3.382,7.214-6.896,10.714-10.45c5.203-5.282,11.107-9.685,17.117-13.967C243.412,157.211,243.62,157.157,243.717,157.114z"
			/>
		<path style="fill:#FFFFFF;" d="M241.915,155.827c-8.77,5.666-16.305,12.777-23.91,20.461c-0.137-1.003-0.212-1.472-0.264-1.944
			c-0.735-6.757-1.044-13.532-0.742-20.325c0.139-3.119,0.681-6.165,2.015-9.029c2.91-6.246,12.483-9.856,18.533-2.03
			c1.522,1.969,2.615,4.163,3.171,6.584C241.17,151.508,241.48,153.505,241.915,155.827z"/>
		<path style="fill:#FFE6F7;" d="M253.077,152.485c3.45,2.797,5.756,6.178,6.79,10.377c0.122,0.497,0.099,1.291-0.206,1.59
			c-2.561,2.51-5.301,4.678-9.247,4.298c-2.226-0.214-3.757-1.305-4.723-3.269c-1.363-2.771-0.891-6.013,1.27-8.191
			C248.786,155.449,250.828,153.872,253.077,152.485z"/>
		<path style="fill:#FFFFFF;" d="M235.335,197.373c3.242-3.239,6.485-6.478,9.969-9.96c0.685,5.065,1.342,9.919,2.01,14.857
			c-1.917-1.271-3.638-2.678-5.583-3.627C239.805,197.703,237.651,197.234,235.335,197.373z"/>
		<path style="fill:#FFE6F7;" d="M254.205,152.016c1.074-0.994,2.036-0.885,3.098-0.313c3.392,1.827,4.839,4.814,5.049,8.49
			c0.041,0.711-0.4,1.449-1.034,2.197c-0.566-1.261-1.034-2.579-1.725-3.767c-0.684-1.175-1.548-2.257-2.414-3.311
			C256.272,154.208,255.268,153.185,254.205,152.016z"/>
		<path style="fill:#E24B7E;" d="M251.534,114.927c0.173-0.571,0.419-1.131,0.507-1.715c1.408-9.298,3.767-18.386,6.205-27.447
			c1.166-4.334,2.957-8.476,5.523-12.184c1.132-1.635,2.535-3.179,4.101-4.396c2.696-2.094,4.558-1.213,5.017,2.216
			c0.494,3.689,0.294,7.369-0.649,10.97c-0.767,2.931-1.595,5.854-2.574,8.72c-2.899,8.481-6.672,16.612-10.03,24.909
			c-3.111,7.687-5.625,15.615-8.406,23.436c-0.313,0.88-0.65,1.751-1.054,2.837c-0.324-0.425-0.585-0.66-0.716-0.953
			c-3.941-8.837-7.946-17.646-11.772-26.532c-2.514-5.839-4.676-11.821-5.762-18.127c-0.839-4.873-1.049-9.761-0.239-14.663
			c0.429-2.602,1.308-5.056,2.829-7.198c0.73-1.028,1.71-1.995,2.787-2.634c2.335-1.385,4.29-1.087,6.384,0.649
			c1.542,1.278,2.597,2.872,3.247,4.771c1.187,3.466,1.392,7.07,1.573,10.677c0.35,6.997,0.665,13.995,1.031,20.991
			c0.068,1.295,0.254,2.59,0.493,3.865c0.121,0.645,0.482,1.246,0.735,1.866C251.022,114.966,251.278,114.947,251.534,114.927z"/>
		<path style="fill:#E24B7E;" d="M269.06,135.648c-0.413,2.274-1.657,4.467-4.09,5.783c-1.709,0.925-2.957,0.115-2.678-1.785
			c0.399-2.718,1.484-5.094,4.281-6.224C268.341,132.708,269.136,133.284,269.06,135.648z"/>
		<path style="fill:#E24B7E;" d="M228.398,129.239c-2.664-0.005-6.27-3.227-6.627-5.922c-0.177-1.338,0.419-2.042,1.765-2.083
			c2.631-0.08,6.314,2.843,6.833,5.422C230.692,128.266,229.948,129.242,228.398,129.239z"/>
		<path style="fill:#E24B7E;" d="M274.145,118.753c-0.101,1.297-2.006,2.742-3.3,2.485c-0.665-0.132-0.96-0.56-0.901-1.24
			c0.087-1.011,1.411-2.545,2.428-2.802C273.35,116.949,274.225,117.717,274.145,118.753z"/>
		<path style="fill:#E24B7E;" d="M224.655,109.886c1.824,0.27,2.415,1.367,2.762,2.812
			C225.145,112.226,225.026,112.113,224.655,109.886z"/>
	</g>
</g>
</svg>
